<mxfile host="" modified="2020-07-02T11:01:56.502Z" agent="5.0 (Windows NT 10.0; Win64; x64) AppleWebKit/537.36 (KHTML, like Gecko) Code/1.46.1 Chrome/78.0.3904.130 Electron/7.3.1 Safari/537.36" etag="FsZO_NmMakY5pOj7jVyA" version="13.1.3">
    <diagram id="C5RBs43oDa-KdzZeNtuy" name="Page-1">
        <mxGraphModel dx="1093" dy="556" grid="1" gridSize="10" guides="1" tooltips="1" connect="1" arrows="1" fold="1" page="1" pageScale="1" pageWidth="827" pageHeight="1169" math="0" shadow="0">
            <root>
                <mxCell id="WIyWlLk6GJQsqaUBKTNV-0"/>
                <mxCell id="WIyWlLk6GJQsqaUBKTNV-1" parent="WIyWlLk6GJQsqaUBKTNV-0"/>
                <mxCell id="zkfFHV4jXpPFQw0GAbJ--63" value="" style="edgeStyle=orthogonalEdgeStyle;endArrow=ERzeroToMany;startArrow=ERmandOne;shadow=0;strokeWidth=1;endSize=8;startSize=8;entryX=0;entryY=0.5;entryDx=0;entryDy=0;" parent="WIyWlLk6GJQsqaUBKTNV-1" source="zkfFHV4jXpPFQw0GAbJ--52" target="SV77yWKfebAAn_p9X0Ls-24" edge="1">
                    <mxGeometry width="100" height="100" relative="1" as="geometry">
                        <mxPoint x="110" y="550" as="sourcePoint"/>
                        <mxPoint x="210" y="450" as="targetPoint"/>
                    </mxGeometry>
                </mxCell>
                <mxCell id="zkfFHV4jXpPFQw0GAbJ--71" value="" style="edgeStyle=orthogonalEdgeStyle;endArrow=ERmandOne;startArrow=ERmandOne;shadow=0;strokeWidth=1;endSize=8;startSize=8;endFill=0;entryX=1;entryY=0.5;entryDx=0;entryDy=0;exitX=-0.012;exitY=0.885;exitDx=0;exitDy=0;exitPerimeter=0;" parent="WIyWlLk6GJQsqaUBKTNV-1" source="zkfFHV4jXpPFQw0GAbJ--52" target="SV77yWKfebAAn_p9X0Ls-28" edge="1">
                    <mxGeometry width="100" height="100" relative="1" as="geometry">
                        <mxPoint x="240" y="618" as="sourcePoint"/>
                        <mxPoint y="340" as="targetPoint"/>
                        <Array as="points">
                            <mxPoint x="-190" y="249"/>
                            <mxPoint x="-190" y="577"/>
                        </Array>
                    </mxGeometry>
                </mxCell>
                <mxCell id="SV77yWKfebAAn_p9X0Ls-58" value="" style="edgeStyle=entityRelationEdgeStyle;fontSize=12;html=1;endArrow=ERzeroToMany;startArrow=ERmandOne;exitX=1;exitY=0.5;exitDx=0;exitDy=0;entryX=0;entryY=0.5;entryDx=0;entryDy=0;" parent="WIyWlLk6GJQsqaUBKTNV-1" source="SV77yWKfebAAn_p9X0Ls-31" target="SV77yWKfebAAn_p9X0Ls-61" edge="1">
                    <mxGeometry width="100" height="100" relative="1" as="geometry">
                        <mxPoint x="-100" y="560" as="sourcePoint"/>
                        <mxPoint x="-320" y="370" as="targetPoint"/>
                    </mxGeometry>
                </mxCell>
                <mxCell id="SV77yWKfebAAn_p9X0Ls-78" value="" style="edgeStyle=entityRelationEdgeStyle;fontSize=12;html=1;endArrow=ERoneToMany;startArrow=ERzeroToOne;exitX=1;exitY=0.5;exitDx=0;exitDy=0;entryX=0;entryY=0.5;entryDx=0;entryDy=0;" parent="WIyWlLk6GJQsqaUBKTNV-1" source="SV77yWKfebAAn_p9X0Ls-73" target="zkfFHV4jXpPFQw0GAbJ--52" edge="1">
                    <mxGeometry width="100" height="100" relative="1" as="geometry">
                        <mxPoint x="-200" y="690" as="sourcePoint"/>
                        <mxPoint x="-103" y="299" as="targetPoint"/>
                    </mxGeometry>
                </mxCell>
                <mxCell id="SV77yWKfebAAn_p9X0Ls-94" value="" style="edgeStyle=entityRelationEdgeStyle;fontSize=12;html=1;endArrow=ERzeroToMany;startArrow=ERzeroToOne;" parent="WIyWlLk6GJQsqaUBKTNV-1" source="zkfFHV4jXpPFQw0GAbJ--57" target="SV77yWKfebAAn_p9X0Ls-75" edge="1">
                    <mxGeometry width="100" height="100" relative="1" as="geometry">
                        <mxPoint x="330" y="680" as="sourcePoint"/>
                        <mxPoint x="150" y="600" as="targetPoint"/>
                    </mxGeometry>
                </mxCell>
                <mxCell id="zkfFHV4jXpPFQw0GAbJ--56" value="Ads" style="swimlane;fontStyle=1;childLayout=stackLayout;horizontal=1;startSize=26;horizontalStack=0;resizeParent=1;resizeLast=0;collapsible=1;marginBottom=0;rounded=0;shadow=0;strokeWidth=1;" parent="WIyWlLk6GJQsqaUBKTNV-1" vertex="1">
                    <mxGeometry x="430" y="310" width="160" height="312" as="geometry">
                        <mxRectangle x="260" y="80" width="160" height="26" as="alternateBounds"/>
                    </mxGeometry>
                </mxCell>
                <mxCell id="zkfFHV4jXpPFQw0GAbJ--57" value="id" style="shape=partialRectangle;top=0;left=0;right=0;bottom=1;align=left;verticalAlign=top;fillColor=none;spacingLeft=40;spacingRight=4;overflow=hidden;rotatable=0;points=[[0,0.5],[1,0.5]];portConstraint=eastwest;dropTarget=0;rounded=0;shadow=0;strokeWidth=1;fontStyle=4" parent="zkfFHV4jXpPFQw0GAbJ--56" vertex="1">
                    <mxGeometry y="26" width="160" height="26" as="geometry"/>
                </mxCell>
                <mxCell id="zkfFHV4jXpPFQw0GAbJ--58" value="PK" style="shape=partialRectangle;top=0;left=0;bottom=0;fillColor=none;align=left;verticalAlign=top;spacingLeft=4;spacingRight=4;overflow=hidden;rotatable=0;points=[];portConstraint=eastwest;part=1;" parent="zkfFHV4jXpPFQw0GAbJ--57" vertex="1" connectable="0">
                    <mxGeometry width="36" height="26" as="geometry"/>
                </mxCell>
                <mxCell id="zkfFHV4jXpPFQw0GAbJ--59" value="title" style="shape=partialRectangle;top=0;left=0;right=0;bottom=0;align=left;verticalAlign=top;fillColor=none;spacingLeft=40;spacingRight=4;overflow=hidden;rotatable=0;points=[[0,0.5],[1,0.5]];portConstraint=eastwest;dropTarget=0;rounded=0;shadow=0;strokeWidth=1;" parent="zkfFHV4jXpPFQw0GAbJ--56" vertex="1">
                    <mxGeometry y="52" width="160" height="26" as="geometry"/>
                </mxCell>
                <mxCell id="zkfFHV4jXpPFQw0GAbJ--60" value="" style="shape=partialRectangle;top=0;left=0;bottom=0;fillColor=none;align=left;verticalAlign=top;spacingLeft=4;spacingRight=4;overflow=hidden;rotatable=0;points=[];portConstraint=eastwest;part=1;" parent="zkfFHV4jXpPFQw0GAbJ--59" vertex="1" connectable="0">
                    <mxGeometry width="36" height="26" as="geometry"/>
                </mxCell>
                <mxCell id="SV77yWKfebAAn_p9X0Ls-14" value="description" style="shape=partialRectangle;top=0;left=0;right=0;bottom=0;align=left;verticalAlign=top;fillColor=none;spacingLeft=40;spacingRight=4;overflow=hidden;rotatable=0;points=[[0,0.5],[1,0.5]];portConstraint=eastwest;dropTarget=0;rounded=0;shadow=0;strokeWidth=1;" parent="zkfFHV4jXpPFQw0GAbJ--56" vertex="1">
                    <mxGeometry y="78" width="160" height="26" as="geometry"/>
                </mxCell>
                <mxCell id="SV77yWKfebAAn_p9X0Ls-15" value="" style="shape=partialRectangle;top=0;left=0;bottom=0;fillColor=none;align=left;verticalAlign=top;spacingLeft=4;spacingRight=4;overflow=hidden;rotatable=0;points=[];portConstraint=eastwest;part=1;" parent="SV77yWKfebAAn_p9X0Ls-14" vertex="1" connectable="0">
                    <mxGeometry width="36" height="26" as="geometry"/>
                </mxCell>
                <mxCell id="SV77yWKfebAAn_p9X0Ls-126" value="animal" style="shape=partialRectangle;top=0;left=0;right=0;bottom=0;align=left;verticalAlign=top;fillColor=none;spacingLeft=40;spacingRight=4;overflow=hidden;rotatable=0;points=[[0,0.5],[1,0.5]];portConstraint=eastwest;dropTarget=0;rounded=0;shadow=0;strokeWidth=1;fontStyle=0" parent="zkfFHV4jXpPFQw0GAbJ--56" vertex="1">
                    <mxGeometry y="104" width="160" height="26" as="geometry"/>
                </mxCell>
                <mxCell id="SV77yWKfebAAn_p9X0Ls-127" value="" style="shape=partialRectangle;top=0;left=0;bottom=0;fillColor=none;align=left;verticalAlign=top;spacingLeft=4;spacingRight=4;overflow=hidden;rotatable=0;points=[];portConstraint=eastwest;part=1;" parent="SV77yWKfebAAn_p9X0Ls-126" vertex="1" connectable="0">
                    <mxGeometry width="36" height="26" as="geometry"/>
                </mxCell>
                <mxCell id="2" value="animal" style="shape=partialRectangle;top=0;left=0;right=0;bottom=0;align=left;verticalAlign=top;fillColor=none;spacingLeft=40;spacingRight=4;overflow=hidden;rotatable=0;points=[[0,0.5],[1,0.5]];portConstraint=eastwest;dropTarget=0;rounded=0;shadow=0;strokeWidth=1;fontStyle=0" vertex="1" parent="zkfFHV4jXpPFQw0GAbJ--56">
                    <mxGeometry y="130" width="160" height="26" as="geometry"/>
                </mxCell>
                <mxCell id="3" value="" style="shape=partialRectangle;top=0;left=0;bottom=0;fillColor=none;align=left;verticalAlign=top;spacingLeft=4;spacingRight=4;overflow=hidden;rotatable=0;points=[];portConstraint=eastwest;part=1;" vertex="1" connectable="0" parent="2">
                    <mxGeometry width="36" height="26" as="geometry"/>
                </mxCell>
                <mxCell id="zkfFHV4jXpPFQw0GAbJ--61" value="gender" style="shape=partialRectangle;top=0;left=0;right=0;bottom=0;align=left;verticalAlign=top;fillColor=none;spacingLeft=40;spacingRight=4;overflow=hidden;rotatable=0;points=[[0,0.5],[1,0.5]];portConstraint=eastwest;dropTarget=0;rounded=0;shadow=0;strokeWidth=1;" parent="zkfFHV4jXpPFQw0GAbJ--56" vertex="1">
                    <mxGeometry y="156" width="160" height="26" as="geometry"/>
                </mxCell>
                <mxCell id="zkfFHV4jXpPFQw0GAbJ--62" value="" style="shape=partialRectangle;top=0;left=0;bottom=0;fillColor=none;align=left;verticalAlign=top;spacingLeft=4;spacingRight=4;overflow=hidden;rotatable=0;points=[];portConstraint=eastwest;part=1;" parent="zkfFHV4jXpPFQw0GAbJ--61" vertex="1" connectable="0">
                    <mxGeometry width="36" height="26" as="geometry"/>
                </mxCell>
                <mxCell id="SV77yWKfebAAn_p9X0Ls-8" value="age" style="shape=partialRectangle;top=0;left=0;right=0;bottom=0;align=left;verticalAlign=top;fillColor=none;spacingLeft=40;spacingRight=4;overflow=hidden;rotatable=0;points=[[0,0.5],[1,0.5]];portConstraint=eastwest;dropTarget=0;rounded=0;shadow=0;strokeWidth=1;" parent="zkfFHV4jXpPFQw0GAbJ--56" vertex="1">
                    <mxGeometry y="182" width="160" height="26" as="geometry"/>
                </mxCell>
                <mxCell id="SV77yWKfebAAn_p9X0Ls-9" value="" style="shape=partialRectangle;top=0;left=0;bottom=0;fillColor=none;align=left;verticalAlign=top;spacingLeft=4;spacingRight=4;overflow=hidden;rotatable=0;points=[];portConstraint=eastwest;part=1;" parent="SV77yWKfebAAn_p9X0Ls-8" vertex="1" connectable="0">
                    <mxGeometry width="36" height="26" as="geometry"/>
                </mxCell>
                <mxCell id="SV77yWKfebAAn_p9X0Ls-12" value="birthday" style="shape=partialRectangle;top=0;left=0;right=0;bottom=0;align=left;verticalAlign=top;fillColor=none;spacingLeft=40;spacingRight=4;overflow=hidden;rotatable=0;points=[[0,0.5],[1,0.5]];portConstraint=eastwest;dropTarget=0;rounded=0;shadow=0;strokeWidth=1;" parent="zkfFHV4jXpPFQw0GAbJ--56" vertex="1">
                    <mxGeometry y="208" width="160" height="26" as="geometry"/>
                </mxCell>
                <mxCell id="SV77yWKfebAAn_p9X0Ls-13" value="" style="shape=partialRectangle;top=0;left=0;bottom=0;fillColor=none;align=left;verticalAlign=top;spacingLeft=4;spacingRight=4;overflow=hidden;rotatable=0;points=[];portConstraint=eastwest;part=1;" parent="SV77yWKfebAAn_p9X0Ls-12" vertex="1" connectable="0">
                    <mxGeometry width="36" height="26" as="geometry"/>
                </mxCell>
                <mxCell id="SV77yWKfebAAn_p9X0Ls-10" value="weight" style="shape=partialRectangle;top=0;left=0;right=0;bottom=0;align=left;verticalAlign=top;fillColor=none;spacingLeft=40;spacingRight=4;overflow=hidden;rotatable=0;points=[[0,0.5],[1,0.5]];portConstraint=eastwest;dropTarget=0;rounded=0;shadow=0;strokeWidth=1;" parent="zkfFHV4jXpPFQw0GAbJ--56" vertex="1">
                    <mxGeometry y="234" width="160" height="26" as="geometry"/>
                </mxCell>
                <mxCell id="SV77yWKfebAAn_p9X0Ls-11" value="" style="shape=partialRectangle;top=0;left=0;bottom=0;fillColor=none;align=left;verticalAlign=top;spacingLeft=4;spacingRight=4;overflow=hidden;rotatable=0;points=[];portConstraint=eastwest;part=1;" parent="SV77yWKfebAAn_p9X0Ls-10" vertex="1" connectable="0">
                    <mxGeometry width="36" height="26" as="geometry"/>
                </mxCell>
                <mxCell id="0" value="image" style="shape=partialRectangle;top=0;left=0;right=0;bottom=0;align=left;verticalAlign=top;fillColor=none;spacingLeft=40;spacingRight=4;overflow=hidden;rotatable=0;points=[[0,0.5],[1,0.5]];portConstraint=eastwest;dropTarget=0;rounded=0;shadow=0;strokeWidth=1;" vertex="1" parent="zkfFHV4jXpPFQw0GAbJ--56">
                    <mxGeometry y="260" width="160" height="26" as="geometry"/>
                </mxCell>
                <mxCell id="1" value="" style="shape=partialRectangle;top=0;left=0;bottom=0;fillColor=none;align=left;verticalAlign=top;spacingLeft=4;spacingRight=4;overflow=hidden;rotatable=0;points=[];portConstraint=eastwest;part=1;" vertex="1" connectable="0" parent="0">
                    <mxGeometry width="36" height="26" as="geometry"/>
                </mxCell>
                <mxCell id="SV77yWKfebAAn_p9X0Ls-24" value="user_id" style="shape=partialRectangle;top=0;left=0;right=0;bottom=0;align=left;verticalAlign=top;fillColor=none;spacingLeft=40;spacingRight=4;overflow=hidden;rotatable=0;points=[[0,0.5],[1,0.5]];portConstraint=eastwest;dropTarget=0;rounded=0;shadow=0;strokeWidth=1;fontStyle=4" parent="zkfFHV4jXpPFQw0GAbJ--56" vertex="1">
                    <mxGeometry y="286" width="160" height="26" as="geometry"/>
                </mxCell>
                <mxCell id="SV77yWKfebAAn_p9X0Ls-25" value="FK1" style="shape=partialRectangle;top=0;left=0;bottom=0;fillColor=none;align=left;verticalAlign=top;spacingLeft=4;spacingRight=4;overflow=hidden;rotatable=0;points=[];portConstraint=eastwest;part=1;" parent="SV77yWKfebAAn_p9X0Ls-24" vertex="1" connectable="0">
                    <mxGeometry width="36" height="26" as="geometry"/>
                </mxCell>
                <mxCell id="SV77yWKfebAAn_p9X0Ls-30" value="Roles" style="swimlane;fontStyle=1;childLayout=stackLayout;horizontal=1;startSize=26;horizontalStack=0;resizeParent=1;resizeLast=0;collapsible=1;marginBottom=0;rounded=0;shadow=0;strokeWidth=1;" parent="WIyWlLk6GJQsqaUBKTNV-1" vertex="1">
                    <mxGeometry x="-560" y="230" width="160" height="104" as="geometry">
                        <mxRectangle x="260" y="270" width="160" height="26" as="alternateBounds"/>
                    </mxGeometry>
                </mxCell>
                <mxCell id="SV77yWKfebAAn_p9X0Ls-31" value="id" style="shape=partialRectangle;top=0;left=0;right=0;bottom=1;align=left;verticalAlign=top;fillColor=none;spacingLeft=40;spacingRight=4;overflow=hidden;rotatable=0;points=[[0,0.5],[1,0.5]];portConstraint=eastwest;dropTarget=0;rounded=0;shadow=0;strokeWidth=1;fontStyle=4" parent="SV77yWKfebAAn_p9X0Ls-30" vertex="1">
                    <mxGeometry y="26" width="160" height="26" as="geometry"/>
                </mxCell>
                <mxCell id="SV77yWKfebAAn_p9X0Ls-32" value="PK" style="shape=partialRectangle;top=0;left=0;bottom=0;fillColor=none;align=left;verticalAlign=top;spacingLeft=4;spacingRight=4;overflow=hidden;rotatable=0;points=[];portConstraint=eastwest;part=1;" parent="SV77yWKfebAAn_p9X0Ls-31" vertex="1" connectable="0">
                    <mxGeometry width="36" height="26" as="geometry"/>
                </mxCell>
                <mxCell id="SV77yWKfebAAn_p9X0Ls-33" value="name" style="shape=partialRectangle;top=0;left=0;right=0;bottom=0;align=left;verticalAlign=top;fillColor=none;spacingLeft=40;spacingRight=4;overflow=hidden;rotatable=0;points=[[0,0.5],[1,0.5]];portConstraint=eastwest;dropTarget=0;rounded=0;shadow=0;strokeWidth=1;" parent="SV77yWKfebAAn_p9X0Ls-30" vertex="1">
                    <mxGeometry y="52" width="160" height="26" as="geometry"/>
                </mxCell>
                <mxCell id="SV77yWKfebAAn_p9X0Ls-34" value="" style="shape=partialRectangle;top=0;left=0;bottom=0;fillColor=none;align=left;verticalAlign=top;spacingLeft=4;spacingRight=4;overflow=hidden;rotatable=0;points=[];portConstraint=eastwest;part=1;" parent="SV77yWKfebAAn_p9X0Ls-33" vertex="1" connectable="0">
                    <mxGeometry width="36" height="26" as="geometry"/>
                </mxCell>
                <mxCell id="SV77yWKfebAAn_p9X0Ls-35" value="description" style="shape=partialRectangle;top=0;left=0;right=0;bottom=0;align=left;verticalAlign=top;fillColor=none;spacingLeft=40;spacingRight=4;overflow=hidden;rotatable=0;points=[[0,0.5],[1,0.5]];portConstraint=eastwest;dropTarget=0;rounded=0;shadow=0;strokeWidth=1;" parent="SV77yWKfebAAn_p9X0Ls-30" vertex="1">
                    <mxGeometry y="78" width="160" height="26" as="geometry"/>
                </mxCell>
                <mxCell id="SV77yWKfebAAn_p9X0Ls-36" value="" style="shape=partialRectangle;top=0;left=0;bottom=0;fillColor=none;align=left;verticalAlign=top;spacingLeft=4;spacingRight=4;overflow=hidden;rotatable=0;points=[];portConstraint=eastwest;part=1;" parent="SV77yWKfebAAn_p9X0Ls-35" vertex="1" connectable="0">
                    <mxGeometry width="36" height="26" as="geometry"/>
                </mxCell>
                <mxCell id="zkfFHV4jXpPFQw0GAbJ--64" value="Profile" style="swimlane;fontStyle=1;childLayout=stackLayout;horizontal=1;startSize=26;horizontalStack=0;resizeParent=1;resizeLast=0;collapsible=1;marginBottom=0;rounded=0;shadow=0;strokeWidth=1;" parent="WIyWlLk6GJQsqaUBKTNV-1" vertex="1">
                    <mxGeometry x="-570" y="460" width="160" height="156" as="geometry">
                        <mxRectangle x="260" y="270" width="160" height="26" as="alternateBounds"/>
                    </mxGeometry>
                </mxCell>
                <mxCell id="zkfFHV4jXpPFQw0GAbJ--65" value="id" style="shape=partialRectangle;top=0;left=0;right=0;bottom=1;align=left;verticalAlign=top;fillColor=none;spacingLeft=40;spacingRight=4;overflow=hidden;rotatable=0;points=[[0,0.5],[1,0.5]];portConstraint=eastwest;dropTarget=0;rounded=0;shadow=0;strokeWidth=1;fontStyle=4" parent="zkfFHV4jXpPFQw0GAbJ--64" vertex="1">
                    <mxGeometry y="26" width="160" height="26" as="geometry"/>
                </mxCell>
                <mxCell id="zkfFHV4jXpPFQw0GAbJ--66" value="PK" style="shape=partialRectangle;top=0;left=0;bottom=0;fillColor=none;align=left;verticalAlign=top;spacingLeft=4;spacingRight=4;overflow=hidden;rotatable=0;points=[];portConstraint=eastwest;part=1;" parent="zkfFHV4jXpPFQw0GAbJ--65" vertex="1" connectable="0">
                    <mxGeometry width="36" height="26" as="geometry"/>
                </mxCell>
                <mxCell id="zkfFHV4jXpPFQw0GAbJ--67" value="phone" style="shape=partialRectangle;top=0;left=0;right=0;bottom=0;align=left;verticalAlign=top;fillColor=none;spacingLeft=40;spacingRight=4;overflow=hidden;rotatable=0;points=[[0,0.5],[1,0.5]];portConstraint=eastwest;dropTarget=0;rounded=0;shadow=0;strokeWidth=1;" parent="zkfFHV4jXpPFQw0GAbJ--64" vertex="1">
                    <mxGeometry y="52" width="160" height="26" as="geometry"/>
                </mxCell>
                <mxCell id="zkfFHV4jXpPFQw0GAbJ--68" value="" style="shape=partialRectangle;top=0;left=0;bottom=0;fillColor=none;align=left;verticalAlign=top;spacingLeft=4;spacingRight=4;overflow=hidden;rotatable=0;points=[];portConstraint=eastwest;part=1;" parent="zkfFHV4jXpPFQw0GAbJ--67" vertex="1" connectable="0">
                    <mxGeometry width="36" height="26" as="geometry"/>
                </mxCell>
                <mxCell id="SV77yWKfebAAn_p9X0Ls-18" value="city" style="shape=partialRectangle;top=0;left=0;right=0;bottom=0;align=left;verticalAlign=top;fillColor=none;spacingLeft=40;spacingRight=4;overflow=hidden;rotatable=0;points=[[0,0.5],[1,0.5]];portConstraint=eastwest;dropTarget=0;rounded=0;shadow=0;strokeWidth=1;" parent="zkfFHV4jXpPFQw0GAbJ--64" vertex="1">
                    <mxGeometry y="78" width="160" height="26" as="geometry"/>
                </mxCell>
                <mxCell id="SV77yWKfebAAn_p9X0Ls-19" value="" style="shape=partialRectangle;top=0;left=0;bottom=0;fillColor=none;align=left;verticalAlign=top;spacingLeft=4;spacingRight=4;overflow=hidden;rotatable=0;points=[];portConstraint=eastwest;part=1;" parent="SV77yWKfebAAn_p9X0Ls-18" vertex="1" connectable="0">
                    <mxGeometry width="36" height="26" as="geometry"/>
                </mxCell>
                <mxCell id="SV77yWKfebAAn_p9X0Ls-132" value="province" style="shape=partialRectangle;top=0;left=0;right=0;bottom=0;align=left;verticalAlign=top;fillColor=none;spacingLeft=40;spacingRight=4;overflow=hidden;rotatable=0;points=[[0,0.5],[1,0.5]];portConstraint=eastwest;dropTarget=0;rounded=0;shadow=0;strokeWidth=1;" parent="zkfFHV4jXpPFQw0GAbJ--64" vertex="1">
                    <mxGeometry y="104" width="160" height="26" as="geometry"/>
                </mxCell>
                <mxCell id="SV77yWKfebAAn_p9X0Ls-133" value="" style="shape=partialRectangle;top=0;left=0;bottom=0;fillColor=none;align=left;verticalAlign=top;spacingLeft=4;spacingRight=4;overflow=hidden;rotatable=0;points=[];portConstraint=eastwest;part=1;" parent="SV77yWKfebAAn_p9X0Ls-132" vertex="1" connectable="0">
                    <mxGeometry width="36" height="26" as="geometry"/>
                </mxCell>
                <mxCell id="SV77yWKfebAAn_p9X0Ls-28" value="user_id" style="shape=partialRectangle;top=0;left=0;right=0;bottom=0;align=left;verticalAlign=top;fillColor=none;spacingLeft=40;spacingRight=4;overflow=hidden;rotatable=0;points=[[0,0.5],[1,0.5]];portConstraint=eastwest;dropTarget=0;rounded=0;shadow=0;strokeWidth=1;fontStyle=4" parent="zkfFHV4jXpPFQw0GAbJ--64" vertex="1">
                    <mxGeometry y="130" width="160" height="26" as="geometry"/>
                </mxCell>
                <mxCell id="SV77yWKfebAAn_p9X0Ls-29" value="FK1" style="shape=partialRectangle;top=0;left=0;bottom=0;fillColor=none;align=left;verticalAlign=top;spacingLeft=4;spacingRight=4;overflow=hidden;rotatable=0;points=[];portConstraint=eastwest;part=1;" parent="SV77yWKfebAAn_p9X0Ls-28" vertex="1" connectable="0">
                    <mxGeometry width="36" height="26" as="geometry"/>
                </mxCell>
                <mxCell id="SV77yWKfebAAn_p9X0Ls-64" value="Requests" style="swimlane;fontStyle=1;childLayout=stackLayout;horizontal=1;startSize=26;horizontalStack=0;resizeParent=1;resizeLast=0;collapsible=1;marginBottom=0;rounded=0;shadow=0;strokeWidth=1;" parent="WIyWlLk6GJQsqaUBKTNV-1" vertex="1">
                    <mxGeometry x="-180" y="790" width="160" height="182" as="geometry">
                        <mxRectangle x="260" y="270" width="160" height="26" as="alternateBounds"/>
                    </mxGeometry>
                </mxCell>
                <mxCell id="SV77yWKfebAAn_p9X0Ls-65" value="id" style="shape=partialRectangle;top=0;left=0;right=0;bottom=1;align=left;verticalAlign=top;fillColor=none;spacingLeft=40;spacingRight=4;overflow=hidden;rotatable=0;points=[[0,0.5],[1,0.5]];portConstraint=eastwest;dropTarget=0;rounded=0;shadow=0;strokeWidth=1;fontStyle=4" parent="SV77yWKfebAAn_p9X0Ls-64" vertex="1">
                    <mxGeometry y="26" width="160" height="26" as="geometry"/>
                </mxCell>
                <mxCell id="SV77yWKfebAAn_p9X0Ls-66" value="PK" style="shape=partialRectangle;top=0;left=0;bottom=0;fillColor=none;align=left;verticalAlign=top;spacingLeft=4;spacingRight=4;overflow=hidden;rotatable=0;points=[];portConstraint=eastwest;part=1;" parent="SV77yWKfebAAn_p9X0Ls-65" vertex="1" connectable="0">
                    <mxGeometry width="36" height="26" as="geometry"/>
                </mxCell>
                <mxCell id="SV77yWKfebAAn_p9X0Ls-67" value="description" style="shape=partialRectangle;top=0;left=0;right=0;bottom=0;align=left;verticalAlign=top;fillColor=none;spacingLeft=40;spacingRight=4;overflow=hidden;rotatable=0;points=[[0,0.5],[1,0.5]];portConstraint=eastwest;dropTarget=0;rounded=0;shadow=0;strokeWidth=1;" parent="SV77yWKfebAAn_p9X0Ls-64" vertex="1">
                    <mxGeometry y="52" width="160" height="26" as="geometry"/>
                </mxCell>
                <mxCell id="SV77yWKfebAAn_p9X0Ls-68" value="" style="shape=partialRectangle;top=0;left=0;bottom=0;fillColor=none;align=left;verticalAlign=top;spacingLeft=4;spacingRight=4;overflow=hidden;rotatable=0;points=[];portConstraint=eastwest;part=1;" parent="SV77yWKfebAAn_p9X0Ls-67" vertex="1" connectable="0">
                    <mxGeometry width="36" height="26" as="geometry"/>
                </mxCell>
                <mxCell id="SV77yWKfebAAn_p9X0Ls-69" value="state" style="shape=partialRectangle;top=0;left=0;right=0;bottom=0;align=left;verticalAlign=top;fillColor=none;spacingLeft=40;spacingRight=4;overflow=hidden;rotatable=0;points=[[0,0.5],[1,0.5]];portConstraint=eastwest;dropTarget=0;rounded=0;shadow=0;strokeWidth=1;" parent="SV77yWKfebAAn_p9X0Ls-64" vertex="1">
                    <mxGeometry y="78" width="160" height="26" as="geometry"/>
                </mxCell>
                <mxCell id="SV77yWKfebAAn_p9X0Ls-70" value="" style="shape=partialRectangle;top=0;left=0;bottom=0;fillColor=none;align=left;verticalAlign=top;spacingLeft=4;spacingRight=4;overflow=hidden;rotatable=0;points=[];portConstraint=eastwest;part=1;" parent="SV77yWKfebAAn_p9X0Ls-69" vertex="1" connectable="0">
                    <mxGeometry width="36" height="26" as="geometry"/>
                </mxCell>
                <mxCell id="SV77yWKfebAAn_p9X0Ls-71" value="OrderId" style="shape=partialRectangle;top=0;left=0;right=0;bottom=0;align=left;verticalAlign=top;fillColor=none;spacingLeft=40;spacingRight=4;overflow=hidden;rotatable=0;points=[[0,0.5],[1,0.5]];portConstraint=eastwest;dropTarget=0;rounded=0;shadow=0;strokeWidth=1;" parent="SV77yWKfebAAn_p9X0Ls-64" vertex="1">
                    <mxGeometry y="104" width="160" height="26" as="geometry"/>
                </mxCell>
                <mxCell id="SV77yWKfebAAn_p9X0Ls-72" value="" style="shape=partialRectangle;top=0;left=0;bottom=0;fillColor=none;align=left;verticalAlign=top;spacingLeft=4;spacingRight=4;overflow=hidden;rotatable=0;points=[];portConstraint=eastwest;part=1;" parent="SV77yWKfebAAn_p9X0Ls-71" vertex="1" connectable="0">
                    <mxGeometry width="36" height="26" as="geometry"/>
                </mxCell>
                <mxCell id="SV77yWKfebAAn_p9X0Ls-73" value="user_id" style="shape=partialRectangle;top=0;left=0;right=0;bottom=0;align=left;verticalAlign=top;fillColor=none;spacingLeft=40;spacingRight=4;overflow=hidden;rotatable=0;points=[[0,0.5],[1,0.5]];portConstraint=eastwest;dropTarget=0;rounded=0;shadow=0;strokeWidth=1;fontStyle=4" parent="SV77yWKfebAAn_p9X0Ls-64" vertex="1">
                    <mxGeometry y="130" width="160" height="26" as="geometry"/>
                </mxCell>
                <mxCell id="SV77yWKfebAAn_p9X0Ls-74" value="FK1" style="shape=partialRectangle;top=0;left=0;bottom=0;fillColor=none;align=left;verticalAlign=top;spacingLeft=4;spacingRight=4;overflow=hidden;rotatable=0;points=[];portConstraint=eastwest;part=1;" parent="SV77yWKfebAAn_p9X0Ls-73" vertex="1" connectable="0">
                    <mxGeometry width="36" height="26" as="geometry"/>
                </mxCell>
                <mxCell id="SV77yWKfebAAn_p9X0Ls-75" value="ads_id" style="shape=partialRectangle;top=0;left=0;right=0;bottom=0;align=left;verticalAlign=top;fillColor=none;spacingLeft=40;spacingRight=4;overflow=hidden;rotatable=0;points=[[0,0.5],[1,0.5]];portConstraint=eastwest;dropTarget=0;rounded=0;shadow=0;strokeWidth=1;fontStyle=4" parent="SV77yWKfebAAn_p9X0Ls-64" vertex="1">
                    <mxGeometry y="156" width="160" height="26" as="geometry"/>
                </mxCell>
                <mxCell id="SV77yWKfebAAn_p9X0Ls-76" value="FK2" style="shape=partialRectangle;top=0;left=0;bottom=0;fillColor=none;align=left;verticalAlign=top;spacingLeft=4;spacingRight=4;overflow=hidden;rotatable=0;points=[];portConstraint=eastwest;part=1;" parent="SV77yWKfebAAn_p9X0Ls-75" vertex="1" connectable="0">
                    <mxGeometry width="36" height="26" as="geometry"/>
                </mxCell>
                <mxCell id="zkfFHV4jXpPFQw0GAbJ--51" value="Users" style="swimlane;fontStyle=1;childLayout=stackLayout;horizontal=1;startSize=26;horizontalStack=0;resizeParent=1;resizeLast=0;collapsible=1;marginBottom=0;rounded=0;shadow=0;strokeWidth=1;" parent="WIyWlLk6GJQsqaUBKTNV-1" vertex="1">
                    <mxGeometry x="40" y="200" width="160" height="182" as="geometry">
                        <mxRectangle x="20" y="80" width="160" height="26" as="alternateBounds"/>
                    </mxGeometry>
                </mxCell>
                <mxCell id="zkfFHV4jXpPFQw0GAbJ--52" value="id" style="shape=partialRectangle;top=0;left=0;right=0;bottom=1;align=left;verticalAlign=top;fillColor=none;spacingLeft=40;spacingRight=4;overflow=hidden;rotatable=0;points=[[0,0.5],[1,0.5]];portConstraint=eastwest;dropTarget=0;rounded=0;shadow=0;strokeWidth=1;fontStyle=4" parent="zkfFHV4jXpPFQw0GAbJ--51" vertex="1">
                    <mxGeometry y="26" width="160" height="26" as="geometry"/>
                </mxCell>
                <mxCell id="zkfFHV4jXpPFQw0GAbJ--53" value="PK" style="shape=partialRectangle;top=0;left=0;bottom=0;fillColor=none;align=left;verticalAlign=top;spacingLeft=4;spacingRight=4;overflow=hidden;rotatable=0;points=[];portConstraint=eastwest;part=1;" parent="zkfFHV4jXpPFQw0GAbJ--52" vertex="1" connectable="0">
                    <mxGeometry width="36" height="26" as="geometry"/>
                </mxCell>
                <mxCell id="zkfFHV4jXpPFQw0GAbJ--54" value="name" style="shape=partialRectangle;top=0;left=0;right=0;bottom=0;align=left;verticalAlign=top;fillColor=none;spacingLeft=40;spacingRight=4;overflow=hidden;rotatable=0;points=[[0,0.5],[1,0.5]];portConstraint=eastwest;dropTarget=0;rounded=0;shadow=0;strokeWidth=1;" parent="zkfFHV4jXpPFQw0GAbJ--51" vertex="1">
                    <mxGeometry y="52" width="160" height="26" as="geometry"/>
                </mxCell>
                <mxCell id="zkfFHV4jXpPFQw0GAbJ--55" value="" style="shape=partialRectangle;top=0;left=0;bottom=0;fillColor=none;align=left;verticalAlign=top;spacingLeft=4;spacingRight=4;overflow=hidden;rotatable=0;points=[];portConstraint=eastwest;part=1;" parent="zkfFHV4jXpPFQw0GAbJ--54" vertex="1" connectable="0">
                    <mxGeometry width="36" height="26" as="geometry"/>
                </mxCell>
                <mxCell id="SV77yWKfebAAn_p9X0Ls-0" value="username" style="shape=partialRectangle;top=0;left=0;right=0;bottom=0;align=left;verticalAlign=top;fillColor=none;spacingLeft=40;spacingRight=4;overflow=hidden;rotatable=0;points=[[0,0.5],[1,0.5]];portConstraint=eastwest;dropTarget=0;rounded=0;shadow=0;strokeWidth=1;" parent="zkfFHV4jXpPFQw0GAbJ--51" vertex="1">
                    <mxGeometry y="78" width="160" height="26" as="geometry"/>
                </mxCell>
                <mxCell id="SV77yWKfebAAn_p9X0Ls-1" value="" style="shape=partialRectangle;top=0;left=0;bottom=0;fillColor=none;align=left;verticalAlign=top;spacingLeft=4;spacingRight=4;overflow=hidden;rotatable=0;points=[];portConstraint=eastwest;part=1;" parent="SV77yWKfebAAn_p9X0Ls-0" vertex="1" connectable="0">
                    <mxGeometry width="36" height="26" as="geometry"/>
                </mxCell>
                <mxCell id="SV77yWKfebAAn_p9X0Ls-2" value="email" style="shape=partialRectangle;top=0;left=0;right=0;bottom=0;align=left;verticalAlign=top;fillColor=none;spacingLeft=40;spacingRight=4;overflow=hidden;rotatable=0;points=[[0,0.5],[1,0.5]];portConstraint=eastwest;dropTarget=0;rounded=0;shadow=0;strokeWidth=1;" parent="zkfFHV4jXpPFQw0GAbJ--51" vertex="1">
                    <mxGeometry y="104" width="160" height="26" as="geometry"/>
                </mxCell>
                <mxCell id="SV77yWKfebAAn_p9X0Ls-3" value="" style="shape=partialRectangle;top=0;left=0;bottom=0;fillColor=none;align=left;verticalAlign=top;spacingLeft=4;spacingRight=4;overflow=hidden;rotatable=0;points=[];portConstraint=eastwest;part=1;" parent="SV77yWKfebAAn_p9X0Ls-2" vertex="1" connectable="0">
                    <mxGeometry width="36" height="26" as="geometry"/>
                </mxCell>
                <mxCell id="SV77yWKfebAAn_p9X0Ls-4" value="password" style="shape=partialRectangle;top=0;left=0;right=0;bottom=0;align=left;verticalAlign=top;fillColor=none;spacingLeft=40;spacingRight=4;overflow=hidden;rotatable=0;points=[[0,0.5],[1,0.5]];portConstraint=eastwest;dropTarget=0;rounded=0;shadow=0;strokeWidth=1;" parent="zkfFHV4jXpPFQw0GAbJ--51" vertex="1">
                    <mxGeometry y="130" width="160" height="26" as="geometry"/>
                </mxCell>
                <mxCell id="SV77yWKfebAAn_p9X0Ls-5" value="" style="shape=partialRectangle;top=0;left=0;bottom=0;fillColor=none;align=left;verticalAlign=top;spacingLeft=4;spacingRight=4;overflow=hidden;rotatable=0;points=[];portConstraint=eastwest;part=1;" parent="SV77yWKfebAAn_p9X0Ls-4" vertex="1" connectable="0">
                    <mxGeometry width="36" height="26" as="geometry"/>
                </mxCell>
                <mxCell id="SV77yWKfebAAn_p9X0Ls-61" value="role_id" style="shape=partialRectangle;top=0;left=0;right=0;bottom=0;align=left;verticalAlign=top;fillColor=none;spacingLeft=40;spacingRight=4;overflow=hidden;rotatable=0;points=[[0,0.5],[1,0.5]];portConstraint=eastwest;dropTarget=0;rounded=0;shadow=0;strokeWidth=1;fontStyle=4" parent="zkfFHV4jXpPFQw0GAbJ--51" vertex="1">
                    <mxGeometry y="156" width="160" height="26" as="geometry"/>
                </mxCell>
                <mxCell id="SV77yWKfebAAn_p9X0Ls-62" value="FK1" style="shape=partialRectangle;top=0;left=0;bottom=0;fillColor=none;align=left;verticalAlign=top;spacingLeft=4;spacingRight=4;overflow=hidden;rotatable=0;points=[];portConstraint=eastwest;part=1;" parent="SV77yWKfebAAn_p9X0Ls-61" vertex="1" connectable="0">
                    <mxGeometry width="36" height="26" as="geometry"/>
                </mxCell>
            </root>
        </mxGraphModel>
    </diagram>
</mxfile>